<svg width="394" height="484" viewBox="0 0 394 484" fill="none" xmlns="http://www.w3.org/2000/svg">
<path d="M393.393 0.000244141L393.393 85.4883C393.393 92.1158 388.021 97.4883 381.393 97.4883L314.787 97.4883C308.159 97.4883 302.787 92.1158 302.787 85.4883L302.787 0.00024018L393.393 0.000244141Z" fill="#323232" fill-opacity="0.7"/>
<path d="M104.37 0L104.37 31.5829C104.37 38.2103 98.997 43.5829 92.3696 43.5829L5.72432e-06 43.5829L7.62939e-06 -4.56214e-06L104.37 0Z" fill="#323232" fill-opacity="0.7"/>
<rect x="192.682" y="52.7583" width="128.455" height="58.4929" rx="12" transform="rotate(90 192.682 52.7583)" fill="#323232" fill-opacity="0.7"/>
<path d="M275.26 0L275.26 78.6066C275.26 85.234 269.888 90.6066 263.26 90.6066L228.768 90.6066C222.14 90.6066 216.768 85.234 216.768 78.6066L216.768 -2.5568e-06L275.26 0Z" fill="#323232" fill-opacity="0.7"/>
<rect x="116.986" y="129.601" width="174.332" height="58.4929" rx="12" transform="rotate(90 116.986 129.601)" fill="#323232" fill-opacity="0.7"/>
<rect x="185.126" y="213.607" width="153.085" height="56.9619" rx="12" transform="rotate(90 185.126 213.607)" fill="#323232" fill-opacity="0.7"/>
<path d="M28.1421 309.668C34.7695 309.668 40.1421 315.041 40.1421 321.668L40.1421 472C40.1421 478.628 34.7695 484 28.1421 484L-7.24701e-05 484L-6.48499e-05 309.668L28.1421 309.668Z" fill="#323232" fill-opacity="0.7"/>
<path d="M7.49756 74.5498C14.125 74.5498 19.4976 79.9224 19.4976 86.5498L19.4976 236.881C19.4976 243.509 14.125 248.881 7.49755 248.881L-6.48407e-05 248.881L-5.72205e-05 74.5498L7.49756 74.5498Z" fill="#323232" fill-opacity="0.7"/>
<rect x="280.995" y="97.4878" width="128.455" height="58.4929" rx="12" transform="rotate(90 280.995 97.4878)" fill="#323232" fill-opacity="0.7"/>
</svg>
